<svg width="135" height="18" viewBox="0 0 135 18" fill="none" xmlns="http://www.w3.org/2000/svg">
<path d="M12.1978 0.404053V0.86956L4.33816 16.3652H6.72845C7.25054 16.3652 7.77578 16.2791 8.30416 16.1101C8.83254 15.9412 9.32318 15.6606 9.77607 15.2716C10.229 14.8826 10.6158 14.3661 10.9366 13.722C11.2574 13.078 11.4744 12.2745 11.5814 11.3116H12.1098C12.0626 11.8409 12.0406 12.5232 12.0406 13.3617C12.0406 13.7188 12.0469 14.2226 12.0626 14.8762C12.0783 15.5299 12.1223 16.2058 12.201 16.9041C11.6348 16.8722 11.0121 16.853 10.3391 16.8467C9.66599 16.8403 8.99294 16.8339 8.32932 16.8339H6.47999C5.48298 16.8339 4.44195 16.8371 3.35373 16.8467C2.26552 16.8562 1.2465 16.8754 0.296677 16.9041V16.4385L8.17521 0.939705H5.69371C5.11186 0.939705 4.5709 1.01623 4.07397 1.17246C3.57704 1.32869 3.121 1.58695 2.70584 1.95362C2.29068 2.32028 1.94787 2.80811 1.67109 3.42028C1.39432 4.03565 1.20247 4.79768 1.09554 5.71594H0.567157C0.598608 5.49913 0.617479 5.23449 0.623769 4.92521C0.630059 4.61594 0.63635 4.28753 0.63635 3.94637C0.63635 3.60521 0.623769 3.0855 0.601753 2.43188C0.579737 1.77826 0.535706 1.10231 0.475948 0.404053C0.982313 0.419995 1.54214 0.435937 2.1523 0.451879C2.7656 0.467821 3.37261 0.474198 3.97961 0.474198H5.64653C6.67184 0.474198 7.76949 0.471009 8.93318 0.461444C10.0969 0.455067 11.1851 0.435937 12.1978 0.404053Z" fill="white"/>
<path d="M28.5336 0.404053C28.4707 1.08637 28.4298 1.74637 28.4078 2.38405C28.3858 3.02173 28.3732 3.50956 28.3732 3.85072C28.3732 4.16318 28.3795 4.45652 28.3952 4.7371C28.4109 5.01768 28.4267 5.25043 28.4424 5.43536H27.914C27.7599 4.30028 27.524 3.40434 27.2001 2.74434C26.8793 2.08434 26.461 1.61884 25.9483 1.34463C25.4356 1.07362 24.8349 0.936517 24.143 0.936517H23.1995C22.756 0.936517 22.4195 0.974777 22.1867 1.05449C21.9571 1.13101 21.803 1.28724 21.7275 1.51999C21.6521 1.75275 21.6112 2.10985 21.6112 2.5913V14.7072C21.6112 15.1887 21.6489 15.5458 21.7275 15.7785C21.803 16.0113 21.9571 16.1675 22.1867 16.2441C22.4163 16.3206 22.7529 16.362 23.1995 16.362H24.3254C25.0142 16.362 25.6244 16.209 26.1527 15.9093C26.6811 15.6064 27.134 15.0899 27.5083 14.3597C27.8825 13.6296 28.1719 12.6443 28.37 11.4009H28.8984C28.8512 11.8983 28.8292 12.5519 28.8292 13.3585C28.8292 13.7156 28.8355 14.2194 28.8512 14.873C28.867 15.5267 28.911 16.2026 28.9896 16.9009C28.2096 16.869 27.3259 16.8498 26.3477 16.8435C25.3664 16.8371 24.4921 16.8307 23.7278 16.8307H22.2559C21.6584 16.8307 21.0136 16.8339 20.3248 16.8435C19.636 16.853 18.9378 16.8594 18.2333 16.8658C17.5288 16.8722 16.862 16.8849 16.233 16.9009V16.4354C16.7237 16.4035 17.0916 16.3429 17.337 16.2504C17.5823 16.158 17.7458 15.9699 17.8307 15.6925C17.9157 15.4119 17.9565 14.9942 17.9565 14.433V2.87507C17.9565 2.30115 17.9157 1.8771 17.8307 1.60608C17.7458 1.33507 17.5791 1.14695 17.3244 1.04811C17.0728 0.946082 16.7079 0.888691 16.233 0.872748V0.407241C16.862 0.423183 17.5288 0.435937 18.2333 0.442314C18.9378 0.451879 19.636 0.458256 20.3248 0.464632C21.0136 0.471009 21.6584 0.477386 22.2559 0.477386H23.7278C24.4323 0.477386 25.2344 0.474198 26.1307 0.464632C27.0271 0.458256 27.8291 0.439125 28.5336 0.407241V0.404053ZM24.9481 8.37507V8.84057H20.9255V8.37507H24.9481ZM25.6149 5.29826C25.552 6.18463 25.5269 6.86057 25.5331 7.32608C25.5394 7.79159 25.5457 8.21884 25.5457 8.60782C25.5457 8.99681 25.552 9.42405 25.5677 9.88956C25.5835 10.3551 25.6212 11.031 25.6841 11.9174H25.1557C25.0802 11.3754 24.9387 10.8684 24.7311 10.4029C24.5236 9.93739 24.2279 9.56115 23.8474 9.2742C23.4637 8.98724 22.9667 8.84376 22.3534 8.84376V8.37826C22.8126 8.37826 23.2026 8.2826 23.5266 8.08811C23.8474 7.89362 24.1115 7.63855 24.3191 7.3197C24.5267 7.00086 24.6902 6.66289 24.8129 6.30579C24.9356 5.94869 25.0268 5.61391 25.0897 5.30463H25.6181L25.6149 5.29826Z" fill="white"/>
<path d="M31.6221 0.404053C32.0058 0.419995 32.5216 0.435937 33.1726 0.451879C33.8237 0.467821 34.4716 0.474198 35.1163 0.474198C35.8523 0.474198 36.5631 0.467821 37.255 0.451879C37.9438 0.435937 38.4344 0.42956 38.7269 0.42956C40.1517 0.42956 41.3342 0.58898 42.2778 0.907821C43.2213 1.22666 43.9258 1.68898 44.3913 2.29478C44.8599 2.90057 45.0926 3.63072 45.0926 4.48521C45.0926 5.01449 44.9857 5.54695 44.7718 6.0826C44.558 6.61826 44.1931 7.11565 43.6805 7.57478C43.1678 8.03391 42.4665 8.39739 41.5764 8.67159C40.6863 8.9426 39.5698 9.0797 38.2206 9.0797H36.0127V8.6142H37.9878C38.8905 8.6142 39.5761 8.43884 40.0447 8.0913C40.5133 7.74057 40.8341 7.27507 41.0103 6.69478C41.1864 6.1113 41.2745 5.46405 41.2745 4.74985C41.2745 3.52231 41.0606 2.57217 40.6297 1.89623C40.202 1.22028 39.466 0.882314 38.4218 0.882314C37.8243 0.882314 37.4374 1.01304 37.2613 1.27768C37.0852 1.54231 36.9971 2.07797 36.9971 2.88463V14.4426C36.9971 15.0006 37.038 15.4214 37.1229 15.702C37.2078 15.9826 37.3714 16.1675 37.6167 16.26C37.862 16.3525 38.23 16.4162 38.7206 16.4449V16.9104C38.3055 16.8785 37.7865 16.8594 37.1575 16.853C36.5285 16.8467 35.8932 16.8403 35.2484 16.8403C34.5125 16.8403 33.8205 16.8435 33.1695 16.853C32.5184 16.8626 31.9995 16.8817 31.6189 16.9104V16.4449C32.1096 16.413 32.4776 16.3525 32.7229 16.26C32.9682 16.1675 33.1317 15.9794 33.2167 15.702C33.3016 15.4214 33.3425 15.0038 33.3425 14.4426V2.87507C33.3425 2.30115 33.3016 1.8771 33.2167 1.60608C33.1317 1.33507 32.9651 1.14695 32.7103 1.04811C32.4587 0.946082 32.0939 0.888691 31.6189 0.872748V0.407241L31.6221 0.404053ZM35.9655 8.67797C36.6228 8.69391 37.1952 8.72579 37.6764 8.77043C38.1577 8.81826 38.5854 8.85971 38.9534 8.89797C39.3213 8.93623 39.6516 8.96492 39.9409 8.98086C41.3342 9.10521 42.3658 9.40811 43.0326 9.88956C43.6994 10.371 44.1334 11.0948 44.3315 12.0577L44.8599 14.4585C44.9983 15.0803 45.143 15.5139 45.2971 15.7626C45.4512 16.0113 45.6713 16.1356 45.9638 16.1356C46.162 16.1197 46.3287 16.0687 46.4576 15.9858C46.5866 15.8997 46.7281 15.7722 46.8822 15.6L47.203 15.8806C46.7879 16.362 46.3444 16.7064 45.8695 16.9168C45.3946 17.1272 44.819 17.2325 44.146 17.2325C43.3188 17.2325 42.6363 17.0539 42.1016 16.6968C41.5638 16.3397 41.2116 15.6797 41.0449 14.7168L40.6297 12.3861C40.5228 11.7325 40.3907 11.1617 40.2397 10.6739C40.0856 10.1829 39.8749 9.7971 39.6076 9.51014C39.3402 9.22318 38.9691 9.0797 38.4942 9.0797H36.0127L35.9655 8.68434V8.67797Z" fill="white"/>
<path d="M57.7895 0.541138C59.3684 0.541138 60.7522 0.866355 61.9348 1.51679C63.1205 2.16722 64.0389 3.09824 64.6962 4.31621C65.3504 5.53099 65.6806 7.01041 65.6806 8.74491C65.6806 10.4794 65.3441 11.9174 64.6742 13.1864C64.0043 14.4553 63.067 15.4437 61.8687 16.1548C60.6704 16.8658 59.3023 17.2197 57.7675 17.2197C56.2327 17.2197 54.8048 16.8945 53.6222 16.244C52.4365 15.5936 51.5181 14.6594 50.8608 13.4351C50.2035 12.2107 49.8764 10.7377 49.8764 9.01592C49.8764 7.29418 50.216 5.84346 50.8923 4.57447C51.5716 3.30549 52.5026 2.31708 53.6851 1.60607C54.8708 0.895051 56.2358 0.541138 57.7864 0.541138H57.7895ZM57.7014 0.949254C56.868 0.949254 56.1415 1.29041 55.5219 1.96954C54.9023 2.64867 54.4274 3.58607 54.0908 4.77853C53.7543 5.97099 53.5876 7.35476 53.5876 8.92665C53.5876 10.4985 53.7763 11.9206 54.1569 13.1066C54.5374 14.2927 55.0501 15.2078 55.698 15.8487C56.3459 16.4895 57.0661 16.8116 57.8556 16.8116C58.689 16.8116 59.4155 16.4704 60.0351 15.7913C60.6547 15.1122 61.1296 14.1716 61.4661 12.9695C61.8027 11.7675 61.9694 10.3901 61.9694 8.83418C61.9694 7.27824 61.7807 5.82114 61.4001 4.64143C61.0195 3.46172 60.5069 2.55302 59.859 1.91215C59.2111 1.27128 58.4909 0.949254 57.7014 0.949254Z" fill="white"/>
<path d="M75.2764 1.1852V1.63795C74.7983 1.65389 74.4366 1.71128 74.1913 1.80693C73.946 1.90577 73.7856 2.08751 73.7101 2.35215C73.6346 2.61679 73.5969 3.02809 73.5969 3.58607V14.8252C73.5969 15.3704 73.6378 15.7753 73.7195 16.0495C73.8013 16.3206 73.9617 16.5023 74.2007 16.5948C74.4398 16.684 74.7952 16.7446 75.2732 16.7765V17.2293C74.8707 17.2006 74.3643 17.1814 73.7541 17.1719C73.144 17.1655 72.5244 17.1591 71.8985 17.1591C71.1846 17.1591 70.5084 17.1623 69.8762 17.1719C69.244 17.1782 68.7408 17.1974 68.3665 17.2293V16.7765C68.8446 16.7478 69.2 16.6872 69.439 16.5948C69.6781 16.5023 69.8385 16.3237 69.9202 16.0495C70.002 15.7785 70.0429 15.3704 70.0429 14.8252V3.58607C70.0429 3.02809 70.002 2.61679 69.9202 2.35215C69.8385 2.08751 69.6749 1.90577 69.4296 1.80693C69.1843 1.70809 68.8289 1.6507 68.3665 1.63795V1.1852C68.7377 1.20114 69.2409 1.21708 69.8762 1.22983C70.5084 1.24578 71.1846 1.25215 71.8985 1.25215C72.5244 1.25215 73.144 1.24578 73.7541 1.22983C74.3643 1.21389 74.8707 1.20114 75.2732 1.1852H75.2764ZM83.0134 1.1852V1.61563C82.5353 1.72085 82.0258 1.93447 81.4817 2.25012C80.9376 2.56896 80.3683 3.0823 79.7708 3.79012L75.5689 8.86607L76.8647 6.98491L82.1862 15.3927C82.3938 15.7403 82.6171 16.0208 82.8561 16.2313C83.0952 16.4417 83.4065 16.6235 83.7965 16.7765V17.2293C83.2744 17.2006 82.6926 17.1814 82.0541 17.1719C81.4125 17.1655 80.8338 17.1591 80.3117 17.1591C79.9972 17.1591 79.6198 17.1623 79.1732 17.1719C78.7266 17.1782 78.1605 17.1974 77.4748 17.2293V16.7765C78.085 16.7478 78.4561 16.6585 78.5819 16.5151C78.7077 16.3716 78.6511 16.1197 78.4152 15.7562L75.1726 10.4316C74.965 10.084 74.7763 9.82259 74.6128 9.65041C74.4492 9.47824 74.2857 9.35708 74.1221 9.28694C73.9586 9.21998 73.7416 9.17853 73.4742 9.16259V8.68751C74.1284 8.67157 74.7134 8.49302 75.2292 8.1423C75.7419 7.79476 76.3048 7.26549 76.9181 6.55447L78.2359 4.94433C78.8021 4.2652 79.1323 3.67853 79.2298 3.18751C79.3273 2.6965 79.2298 2.31389 78.9404 2.04288C78.6511 1.77186 78.2076 1.62838 77.6101 1.61244V1.18201C77.9812 1.19795 78.3366 1.20751 78.6731 1.21708C79.0096 1.22346 79.3587 1.23302 79.7236 1.2394C80.0884 1.24578 80.4878 1.25215 80.9187 1.25215C81.3496 1.25215 81.7427 1.24578 82.0919 1.22983C82.441 1.21389 82.7523 1.20114 83.0197 1.1852H83.0134Z" fill="white"/>
<path d="M95.0466 0.812148L100.478 14.9974C100.686 15.5426 100.922 15.9156 101.183 16.1197C101.444 16.3237 101.677 16.4321 101.887 16.4481V16.9008C101.441 16.8721 100.915 16.853 100.312 16.8435C99.7077 16.8371 99.1007 16.8307 98.4905 16.8307C97.8049 16.8307 97.157 16.8339 96.5468 16.8435C95.9367 16.8498 95.4523 16.869 95.0938 16.9008V16.4481C95.8549 16.4194 96.333 16.2855 96.5343 16.0527C96.7355 15.82 96.6884 15.3162 96.3896 14.5446L92.5903 4.00693L92.9928 3.41708L89.5961 12.3893C89.269 13.2214 89.0709 13.9006 89.0048 14.4298C88.9388 14.9591 88.9765 15.3672 89.1181 15.6542C89.2596 15.9411 89.4892 16.142 89.81 16.2536C90.1308 16.3652 90.5145 16.4321 90.9611 16.4449V16.8977C90.4705 16.869 89.9987 16.8498 89.5521 16.8403C89.1055 16.8339 88.6494 16.8275 88.1902 16.8275C87.8632 16.8275 87.5518 16.8307 87.2624 16.8403C86.9731 16.8466 86.7152 16.8658 86.4919 16.8977V16.4449C86.8064 16.3843 87.1241 16.1803 87.4543 15.8327C87.7845 15.4852 88.1022 14.8953 88.4167 14.0664L93.5118 0.80896C93.7508 0.824902 94.0056 0.831279 94.2823 0.831279C94.5591 0.831279 94.8139 0.824902 95.0529 0.80896L95.0466 0.812148ZM96.6097 10.3774V10.8301H89.9484L90.1717 10.3774H96.6097Z" fill="white"/>
<path d="M123.504 0.860029V1.31278C123.026 1.32872 122.67 1.38612 122.431 1.48177C122.192 1.58061 122.032 1.76235 121.95 2.02699C121.868 2.29162 121.827 2.70293 121.827 3.2609V14.5C121.827 15.0452 121.868 15.4502 121.95 15.7244C122.032 15.9954 122.192 16.1771 122.431 16.2696C122.67 16.3589 123.026 16.4194 123.504 16.4513V16.9041C123.085 16.8754 122.56 16.8563 121.928 16.8467C121.296 16.8403 120.651 16.8339 119.994 16.8339C119.28 16.8339 118.607 16.8371 117.981 16.8467C117.355 16.8531 116.849 16.8722 116.462 16.9041V16.4513C116.968 16.4226 117.352 16.3621 117.613 16.2696C117.874 16.1803 118.05 15.9986 118.138 15.7244C118.226 15.4534 118.273 15.0452 118.273 14.5V2.24061H118.431L112.889 16.9232H112.53L106.495 2.32988V13.1832C106.495 14.0154 106.539 14.6531 106.63 15.0963C106.718 15.5426 106.916 15.8583 107.221 16.0496C107.526 16.2377 108.008 16.3716 108.662 16.445V16.8977C108.379 16.869 108.005 16.8499 107.545 16.8403C107.083 16.8339 106.652 16.8276 106.25 16.8276C105.907 16.8276 105.558 16.8308 105.199 16.8403C104.841 16.8467 104.545 16.8658 104.306 16.8977V16.445C104.784 16.3684 105.139 16.2409 105.378 16.0592C105.617 15.8774 105.778 15.5809 105.86 15.1632C105.941 14.7487 105.982 14.178 105.982 13.451V3.25452C105.982 2.69655 105.941 2.28525 105.86 2.02061C105.778 1.75597 105.614 1.57423 105.369 1.47539C105.124 1.37655 104.768 1.31916 104.306 1.30641V0.853652C104.545 0.869594 104.844 0.885537 105.199 0.89829C105.558 0.914232 105.907 0.920609 106.25 0.920609C106.891 0.920609 107.52 0.914232 108.14 0.89829C108.756 0.882348 109.307 0.869594 109.782 0.853652L114.474 12.3415L113.914 12.8612L118.409 0.91742H119.997C120.651 0.91742 121.296 0.911044 121.931 0.895102C122.563 0.87916 123.089 0.866406 123.507 0.850464L123.504 0.860029Z" fill="white"/>
<path d="M134.364 0.859985V1.31274C133.886 1.32868 133.524 1.38607 133.279 1.48172C133.033 1.58057 132.873 1.7623 132.798 2.02694C132.722 2.29158 132.684 2.70288 132.684 3.26085V14.5C132.684 15.0452 132.725 15.4501 132.807 15.7243C132.889 15.9953 133.049 16.1771 133.288 16.2696C133.527 16.362 133.883 16.4194 134.361 16.4513V16.904C133.958 16.8753 133.452 16.8562 132.842 16.8467C132.231 16.8403 131.612 16.8339 130.986 16.8339C130.256 16.8339 129.58 16.8371 128.964 16.8467C128.344 16.853 127.841 16.8722 127.454 16.904V16.4513C127.932 16.4226 128.287 16.362 128.526 16.2696C128.765 16.1803 128.926 15.9985 129.008 15.7243C129.089 15.4533 129.13 15.0452 129.13 14.5V3.26085C129.13 2.70288 129.089 2.29158 129.008 2.02694C128.926 1.7623 128.762 1.58057 128.517 1.48172C128.272 1.38288 127.916 1.32549 127.454 1.31274V0.859985C127.841 0.875927 128.344 0.891869 128.964 0.904623C129.583 0.920565 130.256 0.926942 130.986 0.926942C131.612 0.926942 132.231 0.920565 132.842 0.904623C133.452 0.888681 133.958 0.875927 134.361 0.859985H134.364Z" fill="white"/>
</svg>
